<svg version="1" xmlns="http://www.w3.org/2000/svg" width="682.667" height="682.667" viewBox="0 0 512.000000 512.000000"><path d="M233.5 1.1C173.1 6.3 115.2 34 72.4 78.1 15.8 136.6-9.7 218.1 3.6 298c6.7 40.4 23.5 79.3 48.6 112.8 8.9 11.9 30.2 33.9 42.3 43.7 28.1 22.8 63.8 40.8 98.5 49.5 78.5 19.7 161 1.8 223.5-48.7 58-46.8 92.3-115.3 95.2-190.1 2.4-61.2-18.3-122.8-57.2-170.7-9.8-12.1-31.8-33.4-43.7-42.3C371.3 22.6 326 5.3 277 1c-13.3-1.1-29.2-1.1-43.5.1zm33.2 89.2c3.9 2.1 8.9 7 11.1 11.1 2.3 4.2 2.3 16.9 0 21.1-.9 1.7-3.5 4.9-5.7 7l-4.1 4V160h-24v-26.9l-2.7-2.1c-14.7-11.5-11-35.1 6.6-41.7 4.5-1.7 14.6-1.1 18.8 1zm44.8 83.6c69.9 7.8 88.5 31.3 88.5 112.1 0 79.9-18 103.4-85.5 111.6-21.7 2.7-95.3 2.7-116.5.1-16.8-2.1-25.9-3.9-35-6.9-39.8-13-52.4-41.4-50.7-114.6 1.8-78 22.3-98.1 105.7-103.6 11.5-.7 83.9.3 93.5 1.3z"/><path d="M170.2 258.1c-8.9 4.5-12.5 15.2-8 23.9 6.8 13.2 24.9 13.2 31.6 0 1.2-2.4 2.2-6 2.2-8-.1-12.9-14.4-21.7-25.8-15.9zM326 258.2c-13.2 6.7-13.2 24.9 0 31.5 2.4 1.3 6 2.3 8 2.3s5.6-1 8-2.3c13.2-6.6 13.2-24.8 0-31.5-2.4-1.2-6-2.2-8-2.2s-5.6 1-8 2.2zM234.3 293c-15 1.7-24.8 5.2-25.8 9.3-1.3 5.2 5 17.2 12.8 24.3 19.4 17.8 50.3 17.6 69.7-.3 5.9-5.5 11.4-14.3 12.5-20.3.5-2.8.2-3.9-1.2-5.2-2.9-2.6-9-4.9-17.3-6.4-9-1.7-40.7-2.6-50.7-1.4z"/></svg>