<svg width="32" height="32" viewBox="0 0 32 32" fill="none" xmlns="http://www.w3.org/2000/svg">
<path d="M22.9365 27.9355C23.1303 28.4525 22.8684 29.0286 22.3516 29.2227C21.8345 29.4164 21.2584 29.1546 21.0645 28.6377L19.9346 25.627L19.2324 23.7529L18.9287 22.9434C19.682 22.911 20.3739 22.8624 21.0088 22.7959L22.9365 27.9355ZM10.9902 22.7959C11.6275 22.8627 12.3197 22.9112 13.0703 22.9434L12.7686 23.7529L12.0654 25.627L10.9365 28.6377C10.7425 29.1546 10.1664 29.4163 9.64941 29.2227C9.13244 29.0287 8.87056 28.4526 9.06445 27.9355L10.9902 22.7959ZM17 25C17 25.5522 16.5521 25.9998 16 26C15.4478 25.9999 15 25.5522 15 25V22.9941C15.3235 22.9978 15.657 23 16 23C16.3426 23 16.6762 22.9967 17 22.9932V25ZM16 6C26.0833 6 27 7.5 27 14C27 20.5 26.0833 22 16 22C15.2887 22 14.623 21.9927 14 21.9766C5.7919 21.7637 5 20.0414 5 14C5 7.95856 5.7919 6.23633 14 6.02344C14.623 6.00726 15.2887 6 16 6ZM15.999 10C15.4477 10.0002 15.0007 10.4479 15 11V13H13.001C12.4489 12.9993 12.0002 13.4477 12 13.999C12 14.552 12.4487 14.9993 13.001 15L15 14.999V17C14.9995 17.552 15.4472 17.999 16 17.999C16.5514 17.999 16.9991 17.5521 17 17V15L18.999 14.999C19.5512 14.9997 20 14.5515 20 14C19.9999 13.4471 19.5512 13.0007 18.999 13H16.999V11C16.9997 10.4477 16.552 10 15.999 10Z" fill="black" style="fill:black;fill-opacity:1;"/>
</svg>
